<svg xmlns="http://www.w3.org/2000/svg" width="24" height="24" viewBox="0 0 24 24" fill="none" stroke="#07c160" stroke-width="2" stroke-linecap="round" stroke-linejoin="round">
  <path d="M16.2 12.8a1.5 1.5 0 1 0 0-3 1.5 1.5 0 0 0 0 3Z"></path>
  <path d="M10.2 7.8a1.5 1.5 0 1 0 0-3 1.5 1.5 0 0 0 0 3Z"></path>
  <path d="M16.2 16.8a1.5 1.5 0 1 0 0-3 1.5 1.5 0 0 0 0 3Z"></path>
  <path d="M10.2 16.8a1.5 1.5 0 1 0 0-3 1.5 1.5 0 0 0 0 3Z"></path>
  <path d="M7.5 12c0-1.8 1.3-3.3 3-3.5 3 .2 5.4 2.6 5.5 5.6"></path>
</svg> 